<?xml version="1.0" encoding="utf-8"?>
<!-- Generator: Adobe Illustrator 17.0.0, SVG Export Plug-In . SVG Version: 6.00 Build 0)  -->
<!DOCTYPE svg PUBLIC "-//W3C//DTD SVG 1.1//EN" "http://www.w3.org/Graphics/SVG/1.1/DTD/svg11.dtd">
<svg version="1.1" id="图层_1" xmlns="http://www.w3.org/2000/svg" xmlns:xlink="http://www.w3.org/1999/xlink" x="0px" y="0px"
	 width="98px" height="131.663px" viewBox="-176.79 65.399 98 131.663" enable-background="new -176.79 65.399 98 131.663"
	 xml:space="preserve">
<g>
	<g>
		<g>
			<path fill="#231815" d="M-117.803,83.533c-0.563,2.075-1.083,4.346-1.555,6.797c0.096,0.099,0.279,0.284,0.568,0.571
				c0.461,0.56,0.75,0.987,0.847,1.271c0.183,0.19,0.236,0.373,0.139,0.56c-0.096,0.099-0.289,0.145-0.563,0.145
				c-4.918-0.088-10.956,0.375-18.136,1.424c-0.558,0.185-1.083,0.091-1.561-0.287c-0.557-0.381-1.029-0.845-1.41-1.413
				c4.065-0.188,9.867-0.898,17.428-2.126c0.563-3.499,1.035-6.66,1.411-9.495c0.091-0.475-0.091-0.654-0.574-0.563
				c-1.035,0.19-3.346,0.517-6.934,0.989c-5.191,0.855-8.258,1.327-9.202,1.424c-0.574-0.097-1.416-0.765-2.558-1.99
				c3.877-0.188,7.223-0.515,10.054-0.989c0-0.941,0-3.21,0-6.8c-0.086-3.971-0.461-6.512-1.126-7.652
				c1.415,0.475,2.874,0.713,4.397,0.713c-0.483,1.126-0.762,3.07-0.864,5.81c-0.091,1.882-0.091,4.384,0,7.51
				c3.309-0.665,5.25-1.228,5.819-1.711c1.314,1.327,3.292,2.083,5.942,2.268C-116.623,80.841-117.331,82.024-117.803,83.533z
				 M-137.773,72.065c2.922,1.029,4.483,1.7,4.671,1.976c0.091,0.378-0.049,1.37-0.418,2.979c-0.295,0.662-0.659,0.756-1.132,0.284
				c-1.137-1.327-2.322-2.885-3.539-4.674c-0.096-0.193-0.096-0.33,0-0.426C-138.105,72.012-137.966,71.966-137.773,72.065z
				 M-124.892,84.951c0.483,0.281,0.81,0.657,0.992,1.134c0.091,0.089,0.145,0.233,0.145,0.418
				c-0.086,0.096-0.225,0.142-0.424,0.142c-4.435,0.85-7.888,1.376-10.334,1.558c-0.568,0-0.987-0.088-1.276-0.279
				c-0.284-0.183-0.756-0.614-1.411-1.279c1.325-0.182,4.381-0.702,9.197-1.555c1.04-0.185,1.791-0.327,2.273-0.426
				C-125.257,84.573-124.983,84.664-124.892,84.951z M-125.021,76.449l-0.568-0.566c3.11-2.925,4.863-5.521,5.234-7.786
				c1.04,1.217,2.263,2.217,3.684,2.979c-0.756,0.276-1.657,0.847-2.686,1.695C-121.053,74.191-122.94,75.411-125.021,76.449z"/>
		</g>
		<g>
			<path fill="#231815" d="M-135.249,154.284c-0.289,1.987-0.434,4.25-0.434,6.797c0.574-0.188,1.421-0.56,2.558-1.137
				c0.37-0.281,0.708-0.458,0.997-0.56c0.939-0.475,1.501-0.614,1.684-0.421c0.199,0.188-0.096,0.662-0.847,1.413
				c-2.456,2.177-4.483,4.153-6.081,5.95c-0.472-1.424-1.277-2.499-2.413-3.26c1.223-0.665,1.888-1.697,1.984-3.121
				c0.295-3.116,0.515-6.312,0.713-9.623c-0.756,0.289-2.038,0.847-3.829,1.697c-0.944,0.48-1.603,0.813-1.978,0.997
				c-0.096-0.102-0.247-0.233-0.429-0.429c-0.66-0.745-1.266-1.322-1.84-1.7c3.77-0.276,6.419-1.274,7.931-2.96
				c0.858,0.836,2.123,1.359,3.829,1.547C-134.359,150.61-134.976,152.213-135.249,154.284z M-137.373,139.842
				c2.922,0.847,4.472,1.418,4.676,1.697c0.182,0.281,0.129,1.18-0.15,2.692c-0.091,0.472-0.236,0.711-0.423,0.711
				c-0.091,0.094-0.333,0-0.708-0.284c-1.705-1.327-3.024-2.737-3.963-4.252c-0.375-0.472-0.515-0.711-0.428-0.711
				C-138.274,139.606-137.942,139.646-137.373,139.842z M-116.138,151.884c-1.501,0.086-4.762,0.373-9.771,0.853
				c0.284,0,0.049,0.046-0.713,0.131c-0.557,1.705-0.895,4.156-0.971,7.368c-0.397,2.544,1.073,3.732,4.376,3.542
				c5.765,0,8.687-0.665,8.789-1.99c0.096-0.467,0.274-1.319,0.563-2.536c0.193-1.228,0.332-2.041,0.428-2.424
				c0.086-0.362,0.236-0.558,0.418-0.558c0.096,0,0.236,0.196,0.418,0.558c1.046,3.601,1.748,6.237,2.134,7.94
				c0.182,0.568-0.15,0.898-0.997,0.992c-3.679,0.477-7.872,0.617-12.596,0.421c-4.167,0-6.044-1.93-5.669-5.805
				c0-0.469,0.096-1.271,0.284-2.41c0.188-2.461,0.284-4.105,0.284-4.95c0-1.509-0.139-2.555-0.429-3.124
				c1.04,0.568,2.123,1.046,3.255,1.424c0.671-0.099,1.695-0.284,3.116-0.571c1.7-0.284,2.789-0.475,3.261-0.563
				c0.086-0.289,0.193-0.708,0.289-1.276c0.654-3.488,0.933-5.191,0.842-5.1c-0.091-0.188-1.935,0.096-5.518,0.853
				c-1.705,0.284-2.981,0.518-3.829,0.713c-0.944-0.579-1.695-1.33-2.274-2.271c2.456,0.191,5.063,0,7.808-0.571
				c1.598-0.373,2.768-0.895,3.529-1.561c1.223,1.137,3.126,1.893,5.673,2.274c-1.239,0.758-2.601,3.019-4.107,6.792
				C-117.081,150.414-116.609,151.031-116.138,151.884z"/>
		</g>
		<path fill="#231815" d="M-120.858,123.896c1.534-1.676,2.48-3.9,2.48-6.346c0-2.447-0.946-4.67-2.48-6.346l34.653-34.653
			c0.167-0.161,0.167-0.437,0-0.59c-0.161-0.164-0.423-0.164-0.579,0l-34.661,34.656c-1.676-1.537-3.9-2.484-6.345-2.484
			c-2.446,0-4.67,0.947-6.346,2.485l-34.657-34.657c-0.167-0.169-0.424-0.164-0.59,0c-0.156,0.153-0.156,0.421,0,0.59l34.66,34.655
			c-1.533,1.675-2.478,3.899-2.478,6.344s0.945,4.669,2.478,6.344l-34.66,34.655c-0.156,0.158-0.156,0.429,0,0.59
			c0.166,0.161,0.434,0.164,0.59,0l34.657-34.657c1.676,1.538,3.901,2.485,6.346,2.485c2.445,0,4.669-0.947,6.345-2.484
			l34.661,34.656c0.15,0.161,0.418,0.161,0.579,0c0.167-0.161,0.167-0.437,0-0.59L-120.858,123.896z M-119.216,117.55
			c0,2.213-0.852,4.228-2.236,5.752l-5.752-5.752l5.753-5.753C-120.068,113.321-119.216,115.336-119.216,117.55z M-127.79,108.972
			c2.214,0,4.229,0.853,5.752,2.237l-5.754,5.753l-5.752-5.752C-132.02,109.826-130.005,108.972-127.79,108.972z M-136.364,117.55
			c0-2.213,0.851-4.228,2.234-5.751l5.752,5.751l-5.751,5.75C-135.513,121.777-136.364,119.763-136.364,117.55z M-127.79,126.125
			c-2.214,0-4.228-0.852-5.752-2.237l5.751-5.751l5.752,5.752C-123.562,125.273-125.577,126.125-127.79,126.125z"/>
		<g>
			<g>
				<g>
					<path fill="#231815" d="M-176.79,110.56h2.66c1.673,0,2.499,0.933,2.499,2.641v5.408c0,1.708-0.826,2.641-2.499,2.641h-2.66
						V110.56z M-175.112,112.088v7.636h0.949c0.536,0,0.853-0.276,0.853-1.04v-5.558c0-0.764-0.317-1.037-0.853-1.037
						L-175.112,112.088L-175.112,112.088z"/>
					<path fill="#231815" d="M-165.143,121.25h-1.695l-0.289-1.938h-2.059l-0.29,1.938h-1.545l1.716-10.69h2.456L-165.143,121.25z
						 M-168.972,117.861h1.62l-0.81-5.405L-168.972,117.861z"/>
					<path fill="#231815" d="M-162.858,113.507v7.743h-1.512v-10.69h2.102l1.727,6.4v-6.4h1.496v10.69h-1.722L-162.858,113.507z"/>
					<path fill="#231815" d="M-155.319,115.295h2.354v3.389c0,1.711-0.853,2.687-2.504,2.687c-1.651,0-2.504-0.976-2.504-2.687
						v-5.558c0-1.711,0.853-2.686,2.504-2.686c1.651,0,2.504,0.976,2.504,2.686v1.038h-1.587v-1.145
						c0-0.764-0.338-1.054-0.874-1.054s-0.869,0.29-0.869,1.054v5.773c0,0.764,0.333,1.037,0.869,1.037s0.874-0.273,0.874-1.037
						v-1.971h-0.767L-155.319,115.295L-155.319,115.295z"/>
					<path fill="#231815" d="M-152.031,112.179v-1.619h1.619v1.451l-0.735,1.695h-0.686l0.44-1.526H-152.031z"/>
					<path fill="#231815" d="M-147.006,110.439c1.63,0,2.477,0.976,2.477,2.686v0.335h-1.593v-0.442
						c0-0.764-0.306-1.054-0.842-1.054c-0.536,0-0.836,0.29-0.836,1.054c0,2.199,3.282,2.612,3.282,5.666
						c0,1.711-0.858,2.687-2.504,2.687c-1.646,0-2.504-0.976-2.504-2.687v-0.657h1.587v0.764c0,0.764,0.333,1.037,0.868,1.037
						c0.536,0,0.869-0.273,0.869-1.037c0-2.199-3.282-2.612-3.282-5.666C-149.484,111.415-148.642,110.439-147.006,110.439z"/>
				</g>
			</g>
			<g>
				<g>
					<path fill="#231815" d="M-108.622,110.439c1.636,0,2.478,0.976,2.478,2.686v0.335h-1.588v-0.442
						c0-0.764-0.311-1.054-0.842-1.054c-0.536,0-0.842,0.29-0.842,1.054c0,2.199,3.282,2.612,3.282,5.666
						c0,1.711-0.853,2.687-2.499,2.687c-1.651,0-2.509-0.976-2.509-2.687v-0.657h1.587v0.764c0,0.764,0.343,1.037,0.874,1.037
						c0.536,0,0.868-0.273,0.868-1.037c0-2.199-3.282-2.612-3.282-5.666C-111.094,111.415-110.252,110.439-108.622,110.439z"/>
					<path fill="#231815" d="M-105.501,110.56h5.191v1.528h-1.759v9.162h-1.679v-9.162h-1.754V110.56z"/>
					<path fill="#231815" d="M-97.822,110.56v8.248c0,0.761,0.338,1.037,0.869,1.037c0.536,0,0.868-0.276,0.868-1.037v-8.248h1.593
						v8.14c0,1.711-0.852,2.686-2.504,2.686c-1.651,0-2.504-0.976-2.504-2.686v-8.14H-97.822z"/>
					<path fill="#231815" d="M-93.188,110.56h2.655c1.679,0,2.504,0.933,2.504,2.641v5.408c0,1.708-0.826,2.641-2.504,2.641h-2.655
						V110.56z M-91.515,112.088v7.636h0.95c0.536,0,0.852-0.276,0.852-1.04v-5.558c0-0.764-0.316-1.037-0.852-1.037L-91.515,112.088
						L-91.515,112.088z"/>
					<path fill="#231815" d="M-86.807,110.56h1.679v10.69h-1.679V110.56z"/>
					<path fill="#231815" d="M-83.89,113.126c0-1.711,0.901-2.686,2.553-2.686c1.646,0,2.547,0.976,2.547,2.686v5.558
						c0,1.711-0.901,2.687-2.547,2.687c-1.652,0-2.553-0.976-2.553-2.687V113.126z M-82.211,118.792
						c0,0.764,0.338,1.054,0.874,1.054c0.531,0,0.868-0.289,0.868-1.054v-5.773c0-0.764-0.338-1.054-0.868-1.054
						c-0.536,0-0.874,0.29-0.874,1.054V118.792z"/>
				</g>
			</g>
		</g>
	</g>
	<g>
		<g>
			<path fill="#231815" d="M-173.849,195.6l0.518,0.129c-0.11,0.426-0.308,0.751-0.588,0.974c-0.281,0.224-0.624,0.334-1.036,0.334
				c-0.421,0-0.764-0.085-1.027-0.257c-0.263-0.171-0.465-0.421-0.606-0.746c-0.131-0.324-0.202-0.675-0.202-1.048
				c0-0.408,0.079-0.764,0.232-1.067c0.154-0.303,0.373-0.533,0.663-0.692c0.29-0.158,0.606-0.237,0.948-0.237
				c0.395,0,0.72,0.101,0.992,0.298c0.263,0.2,0.448,0.481,0.553,0.843l-0.509,0.118c-0.088-0.283-0.22-0.492-0.395-0.621
				c-0.172-0.129-0.386-0.196-0.65-0.196c-0.298,0-0.553,0.072-0.755,0.217c-0.202,0.142-0.343,0.338-0.426,0.579
				c-0.083,0.243-0.123,0.494-0.123,0.752c0,0.332,0.048,0.624,0.145,0.871c0.096,0.248,0.25,0.434,0.456,0.558
				c0.202,0.121,0.421,0.182,0.663,0.182c0.29,0,0.535-0.083,0.737-0.25C-174.06,196.178-173.919,195.929-173.849,195.6z"/>
			<path fill="#231815" d="M-166.843,193.058h0.518v2.261c0,0.393-0.044,0.707-0.132,0.937c-0.092,0.231-0.255,0.419-0.483,0.564
				c-0.237,0.144-0.54,0.217-0.918,0.217c-0.364,0-0.663-0.061-0.9-0.189c-0.232-0.127-0.399-0.31-0.5-0.549
				c-0.097-0.239-0.149-0.566-0.149-0.981v-2.261h0.518v2.258c0,0.34,0.035,0.59,0.097,0.75c0.061,0.163,0.171,0.285,0.325,0.373
				c0.158,0.088,0.343,0.132,0.566,0.132c0.382,0,0.654-0.088,0.812-0.259c0.167-0.173,0.246-0.505,0.246-0.996
				C-166.843,195.317-166.843,193.058-166.843,193.058z"/>
			<path fill="#231815" d="M-162.357,195.715l0.487-0.042c0.022,0.195,0.075,0.356,0.163,0.481c0.083,0.125,0.211,0.228,0.395,0.305
				c0.176,0.077,0.378,0.116,0.597,0.116c0.197,0,0.373-0.031,0.527-0.088c0.149-0.059,0.263-0.14,0.334-0.241
				c0.075-0.103,0.114-0.215,0.114-0.336c0-0.123-0.035-0.231-0.11-0.323c-0.07-0.092-0.189-0.169-0.351-0.231
				c-0.105-0.042-0.338-0.105-0.698-0.191c-0.36-0.086-0.61-0.167-0.755-0.244c-0.185-0.099-0.325-0.22-0.417-0.364
				c-0.092-0.145-0.136-0.308-0.136-0.487c0-0.198,0.053-0.382,0.167-0.555c0.114-0.171,0.272-0.3,0.492-0.391
				c0.215-0.088,0.456-0.134,0.72-0.134c0.29,0,0.544,0.048,0.764,0.14c0.219,0.094,0.395,0.23,0.509,0.412
				c0.123,0.182,0.185,0.386,0.194,0.617l-0.492,0.037c-0.027-0.248-0.123-0.434-0.272-0.56c-0.158-0.127-0.382-0.191-0.685-0.191
				c-0.312,0-0.54,0.057-0.685,0.173c-0.14,0.114-0.211,0.252-0.211,0.415c0,0.14,0.048,0.257,0.149,0.347
				c0.097,0.09,0.36,0.184,0.782,0.279c0.421,0.096,0.711,0.178,0.865,0.25c0.228,0.106,0.399,0.237,0.505,0.4
				c0.11,0.161,0.167,0.347,0.167,0.555s-0.062,0.406-0.184,0.59c-0.114,0.184-0.29,0.327-0.509,0.428
				c-0.228,0.103-0.474,0.154-0.755,0.154c-0.356,0-0.65-0.05-0.891-0.154c-0.241-0.103-0.426-0.259-0.566-0.465
				C-162.278,196.211-162.353,195.975-162.357,195.715z"/>
			<path fill="#231815" d="M-154.263,196.972v-3.453h-1.29v-0.461h3.108v0.461h-1.299v3.453H-154.263z"/>
			<path fill="#231815" d="M-148.89,195.065c0-0.65,0.176-1.157,0.522-1.526c0.347-0.367,0.799-0.551,1.348-0.551
				c0.364,0,0.689,0.086,0.983,0.259c0.289,0.174,0.509,0.412,0.659,0.722c0.154,0.31,0.228,0.659,0.228,1.051
				c0,0.397-0.079,0.75-0.237,1.064c-0.163,0.314-0.386,0.551-0.685,0.711c-0.289,0.162-0.606,0.241-0.948,0.241
				c-0.369,0-0.698-0.088-0.988-0.265c-0.29-0.178-0.509-0.421-0.658-0.729C-148.819,195.734-148.89,195.41-148.89,195.065z
				 M-148.354,195.073c0,0.472,0.123,0.843,0.378,1.115c0.254,0.272,0.57,0.406,0.957,0.406c0.386,0,0.711-0.136,0.961-0.41
				s0.377-0.663,0.377-1.165c0-0.321-0.057-0.597-0.163-0.836c-0.105-0.237-0.263-0.421-0.474-0.551
				c-0.206-0.131-0.439-0.198-0.693-0.198c-0.369,0-0.685,0.127-0.949,0.377C-148.222,194.064-148.354,194.485-148.354,195.073z"/>
			<path fill="#231815" d="M-141.216,196.972v-3.914h0.781l0.927,2.77c0.083,0.259,0.149,0.452,0.189,0.579
				c0.044-0.142,0.114-0.351,0.206-0.628l0.935-2.721h0.702v3.914h-0.501v-3.277l-1.141,3.277h-0.465l-1.132-3.332v3.332
				L-141.216,196.972L-141.216,196.972z"/>
			<path fill="#231815" d="M-126.911,196.511c-0.163,0.176-0.329,0.308-0.518,0.395c-0.189,0.088-0.391,0.131-0.611,0.131
				c-0.395,0-0.715-0.134-0.948-0.404c-0.193-0.222-0.29-0.468-0.29-0.74c0-0.243,0.079-0.461,0.237-0.656
				c0.154-0.195,0.387-0.367,0.698-0.513c-0.18-0.204-0.294-0.369-0.356-0.494c-0.057-0.127-0.088-0.248-0.088-0.367
				c0-0.235,0.097-0.439,0.281-0.613c0.184-0.174,0.412-0.261,0.693-0.261c0.263,0,0.483,0.083,0.654,0.246
				c0.172,0.165,0.259,0.36,0.259,0.59c0,0.371-0.25,0.689-0.742,0.952l0.698,0.896c0.083-0.159,0.145-0.338,0.193-0.544
				l0.496,0.105c-0.083,0.343-0.202,0.623-0.347,0.845c0.18,0.237,0.387,0.439,0.615,0.599l-0.325,0.382
				C-126.503,196.939-126.704,196.754-126.911,196.511z M-127.213,196.131l-0.878-1.093c-0.263,0.156-0.439,0.298-0.527,0.432
				c-0.092,0.131-0.14,0.263-0.14,0.393c0,0.158,0.066,0.323,0.193,0.494c0.123,0.171,0.303,0.257,0.536,0.257
				c0.145,0,0.294-0.044,0.447-0.134C-127.429,196.39-127.306,196.274-127.213,196.131z M-127.89,194.47
				c0.211-0.123,0.343-0.231,0.404-0.323c0.062-0.092,0.097-0.195,0.097-0.308c0-0.134-0.044-0.241-0.131-0.327
				c-0.083-0.083-0.189-0.127-0.316-0.127c-0.127,0-0.237,0.042-0.325,0.125c-0.083,0.085-0.127,0.186-0.127,0.307
				c0,0.061,0.013,0.125,0.048,0.191c0.026,0.068,0.079,0.138,0.14,0.213L-127.89,194.47z"/>
			<path fill="#231815" d="M-117.394,196.972v-3.914h1.47c0.299,0,0.536,0.04,0.72,0.118c0.18,0.079,0.321,0.2,0.422,0.364
				c0.105,0.165,0.158,0.338,0.158,0.518c0,0.167-0.048,0.325-0.14,0.472c-0.088,0.147-0.228,0.268-0.412,0.358
				c0.237,0.07,0.421,0.189,0.549,0.356c0.127,0.167,0.189,0.364,0.189,0.593c0,0.184-0.035,0.353-0.114,0.511
				c-0.079,0.158-0.175,0.279-0.29,0.364c-0.11,0.086-0.255,0.149-0.426,0.193c-0.171,0.044-0.382,0.066-0.632,0.066
				L-117.394,196.972L-117.394,196.972z M-116.876,194.703h0.847c0.229,0,0.396-0.015,0.492-0.046
				c0.132-0.04,0.233-0.103,0.298-0.193c0.07-0.092,0.101-0.206,0.101-0.342c0-0.129-0.031-0.246-0.092-0.345
				c-0.062-0.099-0.149-0.165-0.268-0.202c-0.118-0.037-0.312-0.055-0.592-0.055h-0.786v1.183H-116.876z M-116.876,196.511h0.974
				c0.171,0,0.285-0.007,0.356-0.02c0.114-0.022,0.22-0.057,0.298-0.108c0.079-0.048,0.145-0.121,0.194-0.217
				c0.053-0.095,0.079-0.204,0.079-0.329c0-0.145-0.035-0.272-0.11-0.38s-0.181-0.185-0.312-0.228
				c-0.132-0.044-0.325-0.066-0.57-0.066h-0.908V196.511z"/>
			<path fill="#231815" d="M-110.357,196.972v-3.914h2.836v0.461h-2.318v1.198h2.168v0.461h-2.168v1.332h2.405v0.461
				L-110.357,196.972L-110.357,196.972z"/>
			<path fill="#231815" d="M-103.707,196.972l1.505-3.914h0.553l1.607,3.914h-0.588l-0.457-1.185h-1.642l-0.43,1.185H-103.707z
				 M-102.579,195.365h1.33l-0.408-1.084c-0.123-0.329-0.22-0.601-0.281-0.812c-0.049,0.25-0.119,0.5-0.211,0.748L-102.579,195.365z
				"/>
			<path fill="#231815" d="M-93.834,193.058h0.518v2.261c0,0.393-0.044,0.707-0.132,0.937c-0.088,0.231-0.25,0.419-0.483,0.564
				c-0.232,0.144-0.536,0.217-0.913,0.217c-0.369,0-0.667-0.061-0.904-0.189c-0.228-0.127-0.395-0.31-0.496-0.549
				c-0.101-0.239-0.149-0.566-0.149-0.981v-2.261h0.518v2.258c0,0.34,0.031,0.59,0.092,0.75c0.066,0.163,0.176,0.285,0.325,0.373
				c0.159,0.088,0.342,0.132,0.57,0.132c0.378,0,0.65-0.088,0.813-0.259c0.163-0.173,0.242-0.505,0.242-0.996L-93.834,193.058
				L-93.834,193.058z"/>
			<path fill="#231815" d="M-88.093,196.972v-3.453h-1.291v-0.461h3.1v0.461h-1.291v3.453H-88.093z"/>
			<path fill="#231815" d="M-81.096,196.972v-1.657l-1.51-2.256h0.628l0.773,1.179c0.144,0.222,0.276,0.441,0.399,0.663
				c0.114-0.204,0.259-0.435,0.425-0.692l0.759-1.15h0.601l-1.559,2.256v1.657L-81.096,196.972L-81.096,196.972z"/>
		</g>
		<g>
			<polygon fill="#231815" points="-172.093,175.171 -173.076,175.171 -173.076,180.594 -176.588,180.594 -176.588,181.156 
				-169.53,181.156 -169.53,183.878 -176.018,183.878 -176.018,184.455 -169.53,184.455 -169.53,187.161 -176.588,187.161 
				-176.588,187.736 -168.547,187.736 -168.547,180.594 -172.093,180.594 			"/>
			<path fill="#231815" d="M-175.675,179.771h0.961l-0.022-0.158c-0.219-1.403-0.544-2.614-1.001-3.709l-0.04-0.086h-0.979
				l0.079,0.191c0.466,1.117,0.799,2.34,0.983,3.641L-175.675,179.771z"/>
			<path fill="#231815" d="M-169.455,175.937c-0.193,1.358-0.509,2.55-0.97,3.643l-0.07,0.191h0.966l0.031-0.083
				c0.474-1.143,0.812-2.392,0.997-3.712l0.026-0.158h-0.962L-169.455,175.937z"/>
			<rect x="-158.283" y="175.1" fill="#231815" width="0.983" height="12.559"/>
			<polygon fill="#231815" points="-145.308,178.428 -147.309,178.428 -147.309,179.005 -146.322,179.005 -146.322,187.762 
				-144.36,187.762 -144.36,187.188 -145.308,187.188 			"/>
			<polygon fill="#231815" points="-142.902,181.178 -138.833,181.178 -138.833,175.781 -143.903,175.781 -143.903,176.354 
				-139.864,176.354 -139.864,180.594 -143.925,180.594 -143.925,187.721 -138.539,187.721 -138.539,187.15 -142.902,187.15 			"/>
			<rect x="-146.291" y="175.164" fill="#231815" width="1.001" height="2.673"/>
			<rect x="-128.618" y="175.1" fill="#231815" width="0.988" height="12.559"/>
			<path fill="#231815" d="M-115.875,185.603c0.11-0.65,0.101-1.227,0.101-1.69v-5.518h-1.922v0.56h0.948v4.631
				c0,1.172,0.005,2.502-0.896,3.99l-0.131,0.213h1.085l0.04-0.068c0.219-0.338,0.382-0.676,0.509-1.025
				c0.641,0.797,1.233,1.049,3.029,1.049h4.302v-0.731h-4.583C-114.799,187.014-115.427,186.29-115.875,185.603z"/>
			<rect x="-116.749" y="175.171" fill="#231815" width="0.974" height="2.954"/>
			<path fill="#231815" d="M-111.362,177.816h2.392v-0.571h-2.392v-2.074h-0.992v2.074h-1.15c0.101-0.518,0.172-1.058,0.22-1.65
				l0.013-0.149h-0.979l-0.005,0.129c-0.096,1.337-0.382,2.627-0.856,3.835l-0.075,0.189h1.001l0.036-0.09
				c0.219-0.579,0.395-1.146,0.526-1.692h1.269v2.498h-2.875v0.575h6.418v-0.575h-2.55L-111.362,177.816L-111.362,177.816z"/>
			<path fill="#231815" d="M-109.216,181.838h-5.303v4.537h5.303V181.838z M-113.531,185.8v-3.402h3.344v3.402H-113.531z"/>
			<rect x="-98.962" y="175.1" fill="#231815" width="0.992" height="12.559"/>
			<rect x="-82.303" y="176.235" fill="#231815" width="0.975" height="5.597"/>
			<polygon fill="#231815" points="-81.636,182.903 -79.577,182.903 -79.577,175.171 -80.569,175.171 -80.569,182.328 
				-81.636,182.328 			"/>
			<polygon fill="#231815" points="-83.111,186.977 -83.111,185.085 -79.595,185.085 -79.595,184.512 -83.111,184.512 
				-83.111,183.27 -84.081,183.27 -84.081,184.512 -87.593,184.512 -87.593,185.085 -84.081,185.085 -84.081,186.977 
				-88.04,186.977 -88.04,187.534 -79.147,187.534 -79.147,186.977 			"/>
			<path fill="#231815" d="M-87.031,182.837c0.746-1.218,0.908-2.432,0.957-3.571h1.497v3.637h0.988v-3.637h0.869v-0.575h-0.869
				v-2.537h0.553v-0.56h-4.671v0.56h0.694v1.995c0,0.189,0,0.362,0,0.542h-0.988v0.575h0.97c-0.062,1.082-0.246,2.245-0.992,3.428
				l-0.141,0.209h1.089L-87.031,182.837z M-86.047,178.691v-2.537h1.47v2.537H-86.047z"/>
		</g>
	</g>
</g>
</svg>
