<?xml version="1.0" encoding="UTF-8" standalone="no"?>
<svg width="21px" height="22px" viewBox="0 0 21 22" version="1.1" xmlns="http://www.w3.org/2000/svg" xmlns:xlink="http://www.w3.org/1999/xlink">
    <!-- Generator: Sketch 40.3 (33839) - http://www.bohemiancoding.com/sketch -->
    <title>qq_s</title>
    <desc>Created with Sketch.</desc>
    <defs></defs>
    <g id="Page-1" stroke="none" stroke-width="1" fill="none" fill-rule="evenodd">
        <g id="9" transform="translate(-854.000000, -65.000000)" fill="#656565">
            <g id="Group" transform="translate(810.000000, 65.000000)">
                <path d="M46.4799599,8.69232386 C46.3676102,8.99143427 46.5323326,9.18079851 46.4799599,10.3195926 C46.465873,10.6258992 45.1546908,12.0123931 44.634332,13.4524299 C44.1181198,14.8809911 44.0470868,16.3733469 44.8440624,16.9598779 C45.6410381,17.5464089 46.382997,15.0075226 46.4799599,15.3769447 C46.5222629,15.5381163 46.5750164,15.7057903 46.6385143,15.8780543 C46.8935637,16.5699807 47.321958,17.3359593 47.9427402,18.0520541 C48.0688469,18.1975227 47.1745833,18.4650261 46.6385142,19.3836433 C46.1024451,20.3022605 46.7921002,21.9724733 49.4581322,21.9724728 C52.8977115,21.9724728 53.6665224,20.7542734 53.7366331,20.7596112 C53.9927399,20.7791098 54.0104397,20.7596115 54.2819323,20.7596116 C54.6140766,20.7596116 54.4766515,20.7865098 54.7852853,20.7596112 C54.9519652,20.7450845 56.6236279,22.2175561 58.937948,21.9724728 C62.8808807,21.5549216 62.2779351,20.2237588 61.9684362,19.3836433 C61.6454114,18.5068125 60.5032012,18.0959453 60.5536227,18.0398116 C61.4981596,16.9882677 61.6478275,16.3426861 61.968436,15.3769449 C62.1002326,14.9799457 63.0151526,17.5611145 63.719802,16.9598779 C64.0134252,16.7093462 64.6006704,15.6654618 64.0134252,13.4524299 C63.42618,11.2393979 62.2907268,10.7345669 62.3153975,10.3195924 C62.3667447,9.45590289 62.3369327,8.84939258 62.2936352,8.69232386 C62.0839045,7.93149106 61.6454109,8.09948553 61.6454109,7.93149106 C61.6454109,3.55104929 58.3754106,0 54.3416605,0 C50.3079103,0 47.03791,3.55104929 47.03791,7.93149106 C47.03791,8.27917474 46.7316364,8.02228122 46.4799599,8.69232386 Z" id="qq_s"></path>
            </g>
        </g>
    </g>
</svg>