<?xml version="1.0" encoding="UTF-8" standalone="no"?>
<svg width="28px" height="22px" viewBox="0 0 28 22" version="1.1" xmlns="http://www.w3.org/2000/svg" xmlns:xlink="http://www.w3.org/1999/xlink">
    <!-- Generator: Sketch 40.3 (33839) - http://www.bohemiancoding.com/sketch -->
    <title>sina_weibo_s</title>
    <desc>Created with Sketch.</desc>
    <defs></defs>
    <g id="Page-1" stroke="none" stroke-width="1" fill="none" fill-rule="evenodd">
        <g id="9" transform="translate(-891.000000, -65.000000)" fill="#ACACAC">
            <g id="Group" transform="translate(810.000000, 65.000000)">
                <path d="M93.7432676,22 C100.339336,22 105.635044,18.4844735 105.635044,14.1478512 C105.635044,10.484275 101.133007,10.484275 101.133007,10.2477885 C101.133007,10.0113021 103.374911,7.88292871 101.133007,6.55860685 C98.8911031,5.234285 94.7903797,7.24774146 94.9136984,7.03157897 C96.6773829,3.94005786 94.1565003,2.96401927 92.8715367,2.96401927 C89.8082945,2.96401927 81.8000294,9.81122902 81.8000294,14.1478512 C81.8000294,18.4844735 87.1471989,22 93.7432676,22 Z M94.068327,19.5946846 C98.2824407,19.0024295 101.380631,16.2594581 100.988329,13.4680861 C100.596028,10.6767141 96.8617904,8.89397771 92.6476767,9.48623276 C88.4335631,10.0784878 85.3353727,12.8214592 85.7276745,15.6128313 C86.1199762,18.4042033 89.8542133,20.1869397 94.068327,19.5946846 Z M93.2901879,18.8343047 C95.7965932,18.3471088 97.4930389,16.2266904 97.0793056,14.0982173 C96.6655723,11.9697441 94.2983326,10.6392262 91.7919273,11.126422 C89.285522,11.6136178 87.5890764,13.7340362 88.0028096,15.8625094 C88.4165429,17.9909825 90.7837826,19.3215005 93.2901879,18.8343047 Z M93.3580019,14.9330661 C93.7835547,14.9330661 94.1285334,14.5815135 94.1285334,14.1478512 C94.1285334,13.714189 93.7835547,13.3626364 93.3580019,13.3626364 C92.932449,13.3626364 92.5874704,13.714189 92.5874704,14.1478512 C92.5874704,14.5815135 92.932449,14.9330661 93.3580019,14.9330661 Z M91.5905893,16.7242235 C92.361953,16.3645307 92.7644079,15.5950198 92.4894975,15.0054726 C92.2145872,14.4159254 91.3664146,14.2295917 90.5950509,14.5892845 C89.8236872,14.9489772 89.4212324,15.7184882 89.6961427,16.3080354 C89.9710531,16.8975825 90.8192257,17.0839163 91.5905893,16.7242235 Z M104.05701,4.66671866 C102.664628,3.389694 101.274817,3.82577876 101.274817,3.82577876 C100.732456,3.88889337 100.292785,4.39423685 100.292785,4.94305905 L100.292785,4.27858113 C100.292785,4.83252339 100.734346,5.25543112 101.289785,5.2651744 C101.289785,5.2651744 102.386151,5.04509654 103.128755,5.94374327 C103.871359,6.84239007 103.383909,7.86378352 103.383909,7.86378352 C103.242992,8.39678761 103.572643,8.82887276 104.129794,8.82887271 L103.752163,8.82887274 C104.305022,8.82887269 104.836148,8.38502116 104.900055,7.8486566 C104.900055,7.8486566 105.449393,5.94374331 104.05701,4.66671866 Z M106.656125,2.11266953 C104.103424,-0.346785466 101.019141,0.023655572 101.019141,0.023655572 C100.192433,0.0183138264 99.5222539,0.678020867 99.5222539,1.51688404 L99.5222539,0.609768978 C99.5222539,1.43979803 100.199434,2.08358466 101.021959,2.10091706 C101.021959,2.10091706 103.964185,1.69988672 105.495806,3.94005804 C107.027427,6.18022941 106.422049,8.33211865 106.422049,8.33211865 C106.320628,9.15502018 106.90709,9.82211367 107.744017,9.82211367 L106.774964,9.82211367 C107.606488,9.82211367 108.367673,9.15261751 108.428414,8.33411791 C108.428414,8.33411791 109.208827,4.5721243 106.656125,2.11266953 Z" id="sina_weibo_s"></path>
            </g>
        </g>
    </g>
</svg>