<?xml version="1.0" encoding="UTF-8" standalone="no"?>
<svg width="27px" height="22px" viewBox="0 0 27 22" version="1.1" xmlns="http://www.w3.org/2000/svg" xmlns:xlink="http://www.w3.org/1999/xlink">
    <!-- Generator: Sketch 40.3 (33839) - http://www.bohemiancoding.com/sketch -->
    <title>wechat_s</title>
    <desc>Created with Sketch.</desc>
    <defs></defs>
    <g id="Page-1" stroke="none" stroke-width="1" fill="none" fill-rule="evenodd">
        <g id="9" transform="translate(-810.000000, -65.000000)" fill="#ACACAC">
            <g id="Group" transform="translate(810.000000, 65.000000)">
                <path d="M11.3366303,16.5572531 C10.7730462,16.6468653 10.1922697,16.6936793 9.59891897,16.6936793 C8.4147622,16.6936793 7.28068668,16.5072254 6.23340138,16.1662382 C5.70670354,15.9947499 3.7822087,18.0227648 3.30408324,17.7771659 C3.01922851,17.6308445 4.16357126,15.2335023 3.89860196,15.0631754 C1.5335812,13.5428986 0,11.1006019 0,8.34683966 C0,3.73700718 4.29758215,0 9.59891897,0 C14.5976238,0 18.7039035,3.32252395 19.1564357,7.56643522 C23.3612415,7.73196668 26.7100354,10.6597534 26.7100354,14.2472499 C26.7100354,16.4751361 25.4185441,18.4485995 23.4325817,19.6640817 C23.0585351,19.8930119 24.2424557,21.8232763 23.8231268,21.9950649 C23.5646767,22.1009455 21.7157806,20.4671111 21.442578,20.5492191 C20.6105105,20.7992876 19.7143544,20.9354487 18.7804936,20.9354487 C15.3637371,20.9354487 12.4517106,19.1127421 11.3366303,16.5572531 Z M10.8977567,14.9781429 C10.4751395,15.0369262 10.041259,15.0675013 9.59891897,15.0675013 C8.4919419,15.0675013 7.4379444,14.876017 6.48087139,14.5301453 C6.38540244,14.4956442 6.04496763,14.3922864 5.86080236,14.5301457 C5.44680697,14.8400472 4.89166302,15.4833101 4.89166302,15.4833101 C4.89166302,15.4833101 5.09489881,15.0149232 5.1630219,14.3309359 C5.19414883,14.018407 4.7201198,13.7992689 4.62551649,13.7348807 C2.82269737,12.50786 1.66937721,10.4807659 1.66937721,8.37364521 C1.66937721,4.6767304 5.21955377,1.67978913 9.59891897,1.67978913 C13.6879309,1.67978913 17.0540602,4.29250786 17.4824369,7.6482255 C13.7205701,8.17070837 10.8509519,10.9263229 10.8509519,14.2472499 C10.8509519,14.4942365 10.8668246,14.7380962 10.8977567,14.9781429 Z M6.26016455,6.71915651 C6.95164326,6.71915651 7.51219746,6.15510614 7.51219746,5.45931467 C7.51219746,4.76352319 6.95164326,4.19947282 6.26016455,4.19947282 C5.56868583,4.19947282 5.00813164,4.76352319 5.00813164,5.45931467 C5.00813164,6.15510614 5.56868583,6.71915651 6.26016455,6.71915651 Z M12.9376734,6.71915651 C13.6291521,6.71915651 14.1897063,6.15510614 14.1897063,5.45931467 C14.1897063,4.76352319 13.6291521,4.19947282 12.9376734,4.19947282 C12.2461947,4.19947282 11.6856405,4.76352319 11.6856405,5.45931467 C11.6856405,6.15510614 12.2461947,6.71915651 12.9376734,6.71915651 Z M15.8590835,12.5984185 C16.3200693,12.5984185 16.6937721,12.2223849 16.6937721,11.7585239 C16.6937721,11.2946629 16.3200693,10.9186293 15.8590835,10.9186293 C15.3980977,10.9186293 15.0243949,11.2946629 15.0243949,11.7585239 C15.0243949,12.2223849 15.3980977,12.5984185 15.8590835,12.5984185 Z M20.8672152,12.5984185 C21.328201,12.5984185 21.7019038,12.2223849 21.7019038,11.7585239 C21.7019038,11.2946629 21.328201,10.9186293 20.8672152,10.9186293 C20.4062293,10.9186293 20.0325265,11.2946629 20.0325265,11.7585239 C20.0325265,12.2223849 20.4062293,12.5984185 20.8672152,12.5984185 Z" id="wechat_s"></path>
            </g>
        </g>
    </g>
</svg>