<?xml version="1.0" encoding="UTF-8" standalone="no"?>
<svg width="21px" height="17px" viewBox="0 0 21 17" version="1.1" xmlns="http://www.w3.org/2000/svg" xmlns:xlink="http://www.w3.org/1999/xlink">
    <!-- Generator: Sketch 40.3 (33839) - http://www.bohemiancoding.com/sketch -->
    <title>电话</title>
    <desc>Created with Sketch.</desc>
    <defs></defs>
    <g id="Page-1" stroke="none" stroke-width="1" fill="none" fill-rule="evenodd">
        <g id="9" transform="translate(-1092.000000, -62.000000)" fill="#FD5B89">
            <path d="M1111.10612,75.2698495 C1111.10612,78.5117674 1109.60549,78.5051414 1102.35931,78.5051414 C1095.11361,78.5051414 1093.61294,78.5117448 1093.61294,75.2698495 C1093.61294,71.7315012 1097.52888,64.6719013 1102.35931,64.6719013 C1107.19008,64.6719013 1111.10612,71.7315465 1111.10612,75.2698495 L1111.10612,75.2698495 Z M1102.38489,66.189173 C1100.33239,66.189173 1098.66868,67.8466543 1098.66868,69.8913177 C1098.66868,71.9362073 1100.33239,73.5934625 1102.38489,73.5934625 C1104.43711,73.5934625 1106.10087,71.9362299 1106.10087,69.8913177 C1106.10089,67.8466769 1104.43711,66.189173 1102.38489,66.189173 L1102.38489,66.189173 Z M1094.59579,68.9143732 C1096.11925,66.4846761 1098.75282,63.8925393 1102.34107,63.8925393 C1105.9284,63.8925393 1108.73309,66.6977947 1110.00423,68.8928669 C1110.66116,69.98216 1111.9226,69.8668489 1112.4725,68.8928669 C1112.82585,68.1640256 1113.92997,62.0588235 1102.34113,62.0588235 C1090.62221,62.074337 1091.83313,68.366832 1092.24464,68.8929121 C1092.97347,69.9967237 1094.34657,69.433963 1094.59588,68.9143506 L1094.59579,68.9143732 Z" id="电话"></path>
        </g>
    </g>
</svg>