<?xml version="1.0" encoding="UTF-8" standalone="no"?>
<svg width="17px" height="18px" viewBox="0 0 17 18" version="1.1" xmlns="http://www.w3.org/2000/svg" xmlns:xlink="http://www.w3.org/1999/xlink">
    <!-- Generator: Sketch 40.3 (33839) - http://www.bohemiancoding.com/sketch -->
    <title>qq</title>
    <desc>Created with Sketch.</desc>
    <defs></defs>
    <g id="Page-1" stroke="none" stroke-width="1" fill="none" fill-rule="evenodd">
        <g id="9" transform="translate(-1165.000000, -61.000000)" fill="#B5B5B5">
            <path d="M1166.97803,68.0037812 C1166.88576,68.2447874 1167.02104,68.3973664 1166.97803,69.314942 C1166.96646,69.5617465 1165.88964,70.6789046 1165.46229,71.8392045 C1165.03835,72.990258 1164.98001,74.1927136 1165.63454,74.665307 C1166.28906,75.1379004 1166.8984,73.0922099 1166.97803,73.3898693 C1167.01277,73.5197322 1167.0561,73.6548344 1167.10825,73.7936349 C1167.31771,74.35115 1167.66953,74.9683321 1168.17935,75.5453206 C1168.28292,75.662531 1167.5485,75.87807 1167.10825,76.6182396 C1166.66799,77.3584092 1167.23438,78.7041719 1169.42388,78.7041715 C1172.24866,78.7041715 1172.88006,77.7226156 1172.93763,77.7269165 C1173.14796,77.7426273 1173.1625,77.7269167 1173.38547,77.7269167 C1173.65824,77.7269168 1173.54538,77.7485898 1173.79885,77.7269165 C1173.93574,77.7152116 1175.3086,78.9016457 1177.20926,78.7041715 C1180.44742,78.3677325 1179.95225,77.295157 1179.69807,76.6182396 C1179.43278,75.9117391 1178.49473,75.5806857 1178.53614,75.5354563 C1179.31185,74.6881819 1179.43477,74.1680089 1179.69807,73.3898695 C1179.80631,73.0699901 1180.5577,75.1497493 1181.13639,74.665307 C1181.37753,74.4634428 1181.85981,73.62234 1181.37753,71.8392045 C1180.89525,70.0560689 1179.96275,69.6493048 1179.98302,69.3149419 C1180.02518,68.6190299 1180.0007,68.1303383 1179.96514,68.0037812 C1179.7929,67.3907453 1179.43278,67.5261057 1179.43278,67.3907453 C1179.43278,63.861234 1176.74727,61 1173.43452,61 C1170.12177,61 1167.43625,63.861234 1167.43625,67.3907453 C1167.43625,67.6708891 1167.18472,67.4638989 1166.97803,68.0037812 Z" id="qq"></path>
        </g>
    </g>
</svg>