<?xml version="1.0" encoding="utf-8"?>
<!-- Generator: Adobe Illustrator 17.0.0, SVG Export Plug-In . SVG Version: 6.00 Build 0)  -->
<!DOCTYPE svg PUBLIC "-//W3C//DTD SVG 1.1//EN" "http://www.w3.org/Graphics/SVG/1.1/DTD/svg11.dtd">
<svg version="1.1" id="图层_1" xmlns="http://www.w3.org/2000/svg" xmlns:xlink="http://www.w3.org/1999/xlink" x="0px" y="0px"
	 width="23px" height="18px" viewBox="0 0 23 18" enable-background="new 0 0 23 18" xml:space="preserve">
<title>微信</title>
<desc>Created with Sketch.</desc>
<path fill="#ACACAC" d="M22.432,11.48c0-2.891-2.75-5.25-6.203-5.383C15.857,2.677,12.484,0,8.379,0
	C4.025,0,0.496,3.011,0.496,6.725c0,2.219,1.259,4.187,3.202,5.412c0.218,0.137-0.722,2.069-0.488,2.187
	c0.393,0.198,1.973-1.436,2.406-1.298c0.86,0.275,1.792,0.425,2.764,0.425c0.487,0,0.964-0.038,1.427-0.11
	c0.916,2.059,3.307,3.528,6.113,3.528c0.767,0,1.503-0.11,2.186-0.311c0.224-0.066,1.743,1.25,1.955,1.165
	c0.344-0.138-0.628-1.694-0.321-1.878C21.371,14.865,22.432,13.275,22.432,11.48z M13.52,10.151c-0.379,0-0.685-0.303-0.685-0.677
	c0-0.374,0.307-0.677,0.685-0.677c0.379,0,0.686,0.303,0.686,0.677C14.206,9.848,13.899,10.151,13.52,10.151z M9.407,11.48
	c0,0.199,0.013,0.396,0.038,0.589c-0.347,0.047-0.703,0.072-1.067,0.072c-0.909,0-1.775-0.154-2.561-0.433
	c-0.078-0.028-0.358-0.111-0.509,0c-0.34,0.25-0.796,0.768-0.796,0.768s0.167-0.377,0.223-0.929c0.026-0.252-0.364-0.428-0.441-0.48
	c-1.481-0.989-2.428-2.622-2.428-4.32c0-2.979,2.916-5.394,6.512-5.394c3.358,0,6.123,2.105,6.474,4.809
	C11.764,6.583,9.407,8.804,9.407,11.48z M17.633,10.151c-0.379,0-0.686-0.303-0.686-0.677c0-0.374,0.307-0.677,0.686-0.677
	s0.686,0.303,0.686,0.677C18.319,9.848,18.012,10.151,17.633,10.151z"/>
<ellipse fill="#ACACAC" cx="5.637" cy="4.399" rx="1.028" ry="1.015"/>
<ellipse fill="#ACACAC" cx="11.121" cy="4.399" rx="1.028" ry="1.015"/>
</svg>
