<?xml version="1.0" encoding="UTF-8" standalone="no"?>
<svg width="23px" height="18px" viewBox="0 0 23 18" version="1.1" xmlns="http://www.w3.org/2000/svg" xmlns:xlink="http://www.w3.org/1999/xlink">
    <!-- Generator: Sketch 40.3 (33839) - http://www.bohemiancoding.com/sketch -->
    <title>weib</title>
    <desc>Created with Sketch.</desc>
    <defs></defs>
    <g id="Page-1" stroke="none" stroke-width="1" fill="none" fill-rule="evenodd">
        <g id="9" transform="translate(-1197.000000, -61.000000)" fill="#ACACAC">
            <path d="M1207.22025,78.6981219 C1212.63732,78.6981219 1216.98647,75.8655102 1216.98647,72.3713061 C1216.98647,69.4194043 1213.28913,69.4194043 1213.28913,69.2288569 C1213.28913,69.0383096 1215.13031,67.3233871 1213.28913,66.2563237 C1211.44795,65.1892603 1208.0802,66.8115893 1208.18147,66.6374178 C1209.62991,64.1464456 1207.55962,63.3600091 1206.50433,63.3600091 C1203.98862,63.3600091 1197.41176,68.877102 1197.41176,72.3713061 C1197.41176,75.8655102 1201.80317,78.6981219 1207.22025,78.6981219 Z M1207.47618,76.7600553 C1210.93706,76.2736609 1213.48641,74.0560812 1213.17031,71.8069521 C1212.85422,69.5578229 1209.79238,68.1288442 1206.33151,68.6152385 C1202.87063,69.1016328 1200.32128,71.3192126 1200.63738,73.5683417 C1200.95347,75.8174709 1204.01531,77.2464496 1207.47618,76.7600553 Z M1206.83653,76.1473843 C1208.89494,75.7472707 1210.29336,74.0326302 1209.96,72.3176274 C1209.62663,70.6026245 1207.68772,69.5366963 1205.62932,69.9368099 C1203.57091,70.3369235 1202.17249,72.0515639 1202.50585,73.7665668 C1202.83921,75.4815696 1204.77812,76.5474979 1206.83653,76.1473843 Z M1206.90384,73.0039877 C1207.25333,73.0039877 1207.53665,72.7207265 1207.53665,72.3713061 C1207.53665,72.0218857 1207.25333,71.7386245 1206.90384,71.7386245 C1206.55436,71.7386245 1206.27104,72.0218857 1206.27104,72.3713061 C1206.27104,72.7207265 1206.55436,73.0039877 1206.90384,73.0039877 Z M1205.44462,74.4472007 C1206.07811,74.1518 1206.41209,73.5272478 1206.19058,73.0522241 C1205.96907,72.5772005 1205.27596,72.4315873 1204.64247,72.7269879 C1204.00898,73.0223886 1203.67501,73.6469408 1203.89651,74.1219645 C1204.11802,74.5969881 1204.81113,74.7426013 1205.44462,74.4472007 Z M1215.69049,64.7319476 C1214.54699,63.7029936 1213.58535,64.0514177 1213.58535,64.0514177 C1213.04065,64.1039002 1212.59909,64.5860988 1212.59909,65.1425515 L1212.59909,64.2312639 C1212.59909,64.781398 1213.05446,65.204867 1213.60655,65.2292461 C1213.60655,65.2292461 1214.31829,65.036823 1214.92816,65.7609015 C1215.53803,66.4849801 1215.16705,67.1252042 1215.16705,67.1252042 C1215.03511,67.6556024 1215.37982,68.0855751 1215.9256,68.0855751 L1215.2648,68.0855751 C1215.81568,68.0855751 1216.34374,67.6381578 1216.39667,67.1007144 C1216.39667,67.1007144 1216.834,65.7609016 1215.69049,64.7319476 Z M1217.82504,62.6740398 C1215.72861,60.6923505 1213.46513,61.0109595 1213.46513,61.0109595 C1212.63734,60.9955387 1211.96629,61.6513665 1211.96629,62.4800603 L1211.96629,61.1770171 C1211.96629,62.0037999 1212.6431,62.6499212 1213.4607,62.6819284 C1213.4607,62.6819284 1215.61426,62.3414428 1216.87212,64.1464457 C1218.12997,65.9514486 1217.64552,67.39185 1217.64552,67.39185 C1217.5552,68.2169757 1218.14484,68.8858723 1218.97964,68.8858723 L1217.66147,68.8858723 C1218.4886,68.8858723 1219.24367,68.2138695 1219.29114,67.3895935 C1219.29114,67.3895935 1219.92147,64.6557288 1217.82504,62.6740398 Z" id="weib"></path>
        </g>
    </g>
</svg>